<svg width="20" height="20" viewBox="0 0 20 20" fill="none" xmlns="http://www.w3.org/2000/svg">
<g id="icons8-google 1" clip-path="url(#clip0_23_422)">
<path id="Vector" d="M19.4283 8.11686H18.6538V8.07695H9.99991V11.9231H15.434C14.6413 14.162 12.511 15.7693 9.99991 15.7693C6.81385 15.7693 4.23068 13.1861 4.23068 10C4.23068 6.81397 6.81385 4.2308 9.99991 4.2308C11.4706 4.2308 12.8086 4.78561 13.8273 5.69186L16.547 2.97214C14.8297 1.37166 12.5326 0.384644 9.99991 0.384644C4.68981 0.384644 0.384521 4.68993 0.384521 10C0.384521 15.3101 4.68981 19.6154 9.99991 19.6154C15.31 19.6154 19.6153 15.3101 19.6153 10C19.6153 9.35532 19.5489 8.72599 19.4283 8.11686Z" fill="#FFC107"/>
<path id="Vector_2" d="M1.49316 5.52455L4.6523 7.84137C5.50711 5.72503 7.5773 4.2308 9.9999 4.2308C11.4706 4.2308 12.8085 4.7856 13.8273 5.69185L16.547 2.97214C14.8297 1.37166 12.5326 0.384644 9.9999 0.384644C6.30663 0.384644 3.10374 2.46974 1.49316 5.52455Z" fill="#FF3D00"/>
<path id="Vector_3" d="M10 19.6154C12.4837 19.6154 14.7404 18.665 16.4467 17.1193L13.4707 14.601C12.5053 15.3323 11.3053 15.7693 10 15.7693C7.49908 15.7693 5.37552 14.1746 4.57552 11.9491L1.43994 14.365C3.03129 17.4789 6.26302 19.6154 10 19.6154Z" fill="#4CAF50"/>
<path id="Vector_4" d="M19.4284 8.11681H18.6538V8.0769H10V11.9231H15.4341C15.0534 12.9985 14.3615 13.9259 13.4692 14.6014L13.4707 14.6005L16.4466 17.1187C16.2361 17.3101 19.6154 14.8077 19.6154 9.99998C19.6154 9.35527 19.549 8.72594 19.4284 8.11681Z" fill="#1976D2"/>
</g>
<defs>
<clipPath id="clip0_23_422">
<rect width="20" height="20" fill="white"/>
</clipPath>
</defs>
</svg>
