<?xml version="1.0" standalone="no"?>
<!DOCTYPE svg PUBLIC "-//W3C//DTD SVG 20010904//EN"
 "http://www.w3.org/TR/2001/REC-SVG-20010904/DTD/svg10.dtd">
<svg version="1.0" xmlns="http://www.w3.org/2000/svg"
 width="476.000000pt" height="476.000000pt" viewBox="0 0 476.000000 476.000000"
 preserveAspectRatio="xMidYMid meet">
<metadata>
Created by potrace 1.14, written by Peter Selinger 2001-2017
</metadata>
<g transform="translate(0.000000,476.000000) scale(0.100000,-0.100000)"
fill="#000000" stroke="none">
<path d="M2280 4743 c-46 -4 -251 -24 -270 -28 -8 -1 -35 -6 -60 -10 -112 -18
-385 -98 -448 -131 -15 -8 -32 -14 -38 -14 -25 0 -295 -146 -398 -215 -603
-401 -993 -1059 -1052 -1775 -5 -60 -4 -338 0 -373 3 -15 7 -60 11 -100 4 -40
9 -74 10 -77 2 -3 6 -26 10 -50 20 -138 83 -346 152 -510 295 -691 916 -1210
1649 -1379 284 -66 671 -77 944 -26 483 89 921 317 1260 655 205 203 326 370
450 615 60 117 142 318 154 377 3 13 15 59 27 103 29 111 55 256 65 370 5 61
6 356 0 405 -27 259 -69 440 -153 655 -34 87 -140 304 -173 355 -9 14 -39 59
-66 100 -296 449 -764 794 -1299 956 -85 26 -289 70 -365 78 -157 17 -322 25
-410 19z"/>
</g>
</svg>
